    <svg version="1.1" id="Layer_1" xmlns="http://www.w3.org/2000/svg"
        xmlns:xlink="http://www.w3.org/1999/xlink" x="0px" y="0px" viewBox="400 300 800 600"
        preserveAspectRatio="xMidYMid slice" style="enable-background:new 0 0 1600 1200;"
        xml:space="preserve" class="h-20 w-auto">
        <style type="text/css">
            .st0 {
                fill: url(#SVGID_1_);
            }

            .st1 {
                fill: url(#SVGID_00000169528464310508651950000002350045214783221914_);
            }
        </style>
        <g>
            <linearGradient id="SVGID_1_" gradientUnits="userSpaceOnUse" x1="811.3968" y1="363.2458"
                x2="799.5787" y2="876.1487">
                <stop offset="0" style="stop-color:#F954D1" />
                <stop offset="0.2779" style="stop-color:#B53DFB" />
                <stop offset="0.6397" style="stop-color:#2B62FD" />
                <stop offset="1" style="stop-color:#2BB9FD" />
            </linearGradient>
            <path class="st0" d="M899.3,753.4l-56.8-56.8l-22.5-22.5l-5.9-5.9v0L800,654.1l0,0l0,0l-14.2,14.2v0l-5.9,5.9l-22.5,22.5l0,0v0
    L729,725.1v0l-28.4,28.4l0,0v0l-28.4,28.4v0l-28.4,28.4l-28.2,28.2c-0.2,0.2-0.3,0.4-0.3,0.6v37.7c0,0.8,1,1.2,1.5,0.6l26.9-26.9
    l26.9-26.9c0.6-0.6,1.5-0.2,1.5,0.6v83c0,0.5,0.4,0.9,0.9,0.9h26.7c0.5,0,0.9-0.4,0.9-0.9V793.6l0,0l26.9-26.9
    c0.6-0.6,1.5-0.2,1.5,0.6v139.8c0,0.5,0.4,0.9,0.9,0.9h26.6c0.5,0,0.9-0.4,0.9-0.9V736.8l0,0l26.9-26.9c0.6-0.6,1.5-0.2,1.5,0.6
    v196.6c0,0.5,0.4,0.9,0.9,0.9h26.6c0.5,0,0.9-0.4,0.9-0.9V710.5c0-0.8,1-1.2,1.5-0.6l26.6,26.6c0.2,0.2,0.3,0.4,0.3,0.6v169
    c0,0.5,0.4,0.9,0.9,0.9h26.6c0.5,0,0.9-0.4,0.9-0.9V767.3c0-0.8,1-1.2,1.5-0.6l26.6,26.6c0.2,0.2,0.3,0.4,0.3,0.6v113.3
    c0,0.5,0.4,0.9,0.9,0.9h26.7c0.5,0,0.9-0.4,0.9-0.9v-83.1c0-0.8,1-1.2,1.5-0.6l53.8,53.8c0.6,0.6,1.5,0.2,1.5-0.6V839
    c0-0.2-0.1-0.5-0.3-0.6l-56.6-56.6L899.3,753.4z" />
            <linearGradient id="SVGID_00000101097375152033808340000009349513470710638211_"
                gradientUnits="userSpaceOnUse" x1="809.5114" y1="363.2024" x2="797.6934" y2="876.1053">
                <stop offset="0" style="stop-color:#F954D1" />
                <stop offset="0.2779" style="stop-color:#B53DFB" />
                <stop offset="0.6397" style="stop-color:#2B62FD" />
                <stop offset="1" style="stop-color:#2BB9FD" />
            </linearGradient>
            <path style="fill:url(#SVGID_00000101097375152033808340000009349513470710638211_);"
                d="M927.8,699.6v-93.6c0-0.2-0.1-0.4-0.2-0.6
    l-26.7-32.3c-0.5-0.6-1.6-0.3-1.6,0.6v95.7c0,0.8-1,1.2-1.5,0.6l-26.6-26.6c-0.2-0.2-0.3-0.4-0.3-0.6V466.6
    c0-0.2-0.1-0.4-0.2-0.6l-26.6-32.3c-0.5-0.6-1.6-0.3-1.6,0.6v178.3c0,0.8-1,1.2-1.5,0.6l-21-21v0l-5.6-5.6
    c-0.2-0.2-0.3-0.4-0.3-0.6V309c0-0.2-0.1-0.4-0.2-0.6l-13.3-16.2c-0.4-0.4-1-0.4-1.4,0L786,308.4c-0.1,0.2-0.2,0.4-0.2,0.6v277
    c0,0.2-0.1,0.5-0.3,0.6l-5.6,5.6l-22.5,22.5l0,0V435.3c0-0.8-1-1.2-1.6-0.6L729.2,467c-0.1,0.2-0.2,0.4-0.2,0.6v175.2
    c0,0.2-0.1,0.5-0.3,0.6l-28.1,28.1l0,0v-97.9c0-0.8-1-1.2-1.6-0.6l-26.7,32.3c-0.1,0.2-0.2,0.4-0.2,0.6v93.7
    c0,0.2-0.1,0.5-0.3,0.6l-56.3,56.3c-0.2,0.2-0.3,0.4-0.3,0.6v37.7c0,0.8,1,1.2,1.5,0.6l26.9-26.9l28.4-28.4
    l28.4-28.4l98.7-98.7c0.3-0.3,0.9-0.3,1.2,0l13.6,13.6l28.4,28.4v0l28.4,28.4v0l28.4,28.4v0l28.4,28.4v0l55.3,55.3
    c0.6,0.6,1.5,0.2,1.5-0.6v-37.7c0-0.2-0.1-0.5-0.3-0.6L928,700.2C927.8,700,927.8,699.8,927.8,699.6z" />
        </g>
    </svg>